<svg viewBox="0 0 187.898 81.276" xmlns="http://www.w3.org/2000/svg" xmlns:xlink="http://www.w3.org/1999/xlink"><linearGradient id="a" gradientUnits="objectBoundingBox" x1=".499" x2=".499" y1="1.078" y2="-.011"><stop offset="0" stop-color="#f79548"/><stop offset=".505" stop-color="#f05b89"/><stop offset="1" stop-color="#0074a2"/></linearGradient><linearGradient id="b" gradientUnits="objectBoundingBox" x1=".121" x2="1.122" y1=".5" y2=".5"><stop offset="0" stop-color="#3daeb5"/><stop offset=".23" stop-color="#56c5d0"/><stop offset=".505" stop-color="#56c5d0"/><stop offset=".887" stop-color="#0074a2"/></linearGradient><linearGradient id="c" gradientUnits="objectBoundingBox" x1=".142" x2="1.28" y1="-.312" y2="1.261"><stop offset="0" stop-color="#56c5d0"/><stop offset=".5" stop-color="#0074a2"/><stop offset="1" stop-color="#22566e"/></linearGradient><linearGradient id="d" gradientUnits="objectBoundingBox" x1=".001" x2=".996" y1=".5" y2=".5"><stop offset="0" stop-color="#c81f66"/><stop offset=".446" stop-color="#f05b89"/><stop offset="1" stop-color="#c81f66"/></linearGradient><linearGradient id="e" gradientUnits="objectBoundingBox" x1=".023" x2=".997" y1=".477" y2=".477"><stop offset="0" stop-color="#ffc93e"/><stop offset="1" stop-color="#f69047"/></linearGradient><linearGradient id="f" gradientUnits="objectBoundingBox" x1="-.009" x2="1.091" y1=".5" y2=".5"><stop offset="0" stop-color="#ed1651"/><stop offset="1" stop-color="#f05b7d"/></linearGradient><linearGradient id="g" gradientUnits="objectBoundingBox" x2="1" y1=".5" y2=".5"><stop offset="0" stop-color="#22566e"/><stop offset=".992" stop-color="#3daeb5"/></linearGradient><linearGradient id="h" gradientUnits="objectBoundingBox" x2="1" y1=".5" y2=".5"><stop offset="0" stop-color="#0074a2"/><stop offset="1" stop-color="#56c5d0"/></linearGradient><linearGradient id="i" x1="0" x2="1" xlink:href="#h" y1=".5" y2=".5"/><path d="m20.27 297.189h-16.95a3.318 3.318 0 0 1 -3.32-3.32l12.562-15.8h-11.594a4.065 4.065 0 0 1 4.07-4.069h11.094a3.318 3.318 0 0 1 3.32 3.32v.033l-12.662 15.765h9.41a4.065 4.065 0 0 1 4.071 4.071z" transform="translate(0 -228.291)"/><path d="m139.167 324.464a10.675 10.675 0 0 1 -7.924 3.353c-6.289 0-9.743-3.937-9.743-8.775 0-5 3.9-8.942 9.376-8.942 4.4 0 8.625 2.836 9.159 8.725a1.14 1.14 0 0 1 -1.134 1.268h-12.501c.1 2.269 2.336 3.9 5.889 3.654a5.274 5.274 0 0 0 1.318-.334 5.361 5.361 0 0 1 5.555 1.051zm-12.667-7.357h8.508c-.334-2.185-2.552-3.02-4.2-3.02a4.243 4.243 0 0 0 -4.308 3.02z" transform="translate(-101.23 -258.369)"/><path d="m257.751 312.77v13.58h-2.451a2.492 2.492 0 0 1 -2.486-2.486 6.115 6.115 0 0 1 -5.338 2.853c-5.172 0-8.275-3.97-8.275-8.942 0-4.771 2.886-8.775 8.191-8.775a6.847 6.847 0 0 1 5.439 2.686v-2.319h1.535a3.382 3.382 0 0 1 3.385 3.403zm-9.242 9.943a4.256 4.256 0 0 0 4.438-4.638c0-3.153-1.885-5.072-4.571-5.072-2.719 0-4.237 2.185-4.237 4.8-.001 2.725 1.651 4.91 4.37 4.91z" transform="translate(-199.295 -257.452)"/><path d="m368.3 293.356v-23.956a4.938 4.938 0 0 1 4.938 4.938v19.018z" transform="translate(-306.857 -224.459)"/><path d="m418.742 308.9c4.971 0 9.342 3.57 9.342 8.842 0 5.305-4.371 8.875-9.342 8.875-4.938 0-9.342-3.537-9.342-8.875 0-5.289 4.4-8.842 9.342-8.842zm0 13.5a4.622 4.622 0 1 0 -4.538-4.638 4.565 4.565 0 0 0 4.538 4.638z" transform="translate(-341.101 -257.369)"/><path d="m547.566 328.1h-2.619a2.314 2.314 0 0 1 -2.319-2.319 6.05 6.05 0 0 1 -5.272 2.686c-4.771 0-6.056-3.8-6.056-8.125v-9.242a4.938 4.938 0 0 1 4.938 4.938v4.2c0 2.352.867 4.137 3.153 4.137s3.253-1.818 3.253-4.171v-9.104h.817a4.1 4.1 0 0 1 4.1 4.1z" transform="translate(-442.665 -259.202)"/><path d="m638.9 322.229a4.622 4.622 0 0 1 4.638.217 4.148 4.148 0 0 0 2.119.55c1.1 0 2.219-.434 2.219-1.285 0-.567-.334-.968-1.251-1.285l-2.986-1.251c-4.037-1.418-4.237-4.1-4.237-4.871 0-3.42 3.02-5.205 6.656-5.205a6.408 6.408 0 0 1 6.123 3.57l-.033.017a7.587 7.587 0 0 1 -5.322.234 3.46 3.46 0 0 0 -.867-.117c-.934 0-1.885.534-1.885 1.385 0 .734.734 1.134 1.585 1.451l2.552 1c4 1.151 4.371 3.77 4.371 4.9 0 3.47-3.22 5.272-6.957 5.272-2.519 0-5.956-.8-7.124-4.337z" transform="translate(-531.981 -257.535)"/><path d="m911.967 323.364a10.675 10.675 0 0 1 -7.924 3.353c-6.289 0-9.743-3.937-9.743-8.775 0-5 3.9-8.942 9.376-8.942 4.4 0 8.625 2.836 9.159 8.725a1.14 1.14 0 0 1 -1.134 1.268h-12.501c.1 2.269 2.336 3.9 5.889 3.654a5.275 5.275 0 0 0 1.318-.334 5.361 5.361 0 0 1 5.555 1.051zm-12.667-7.357h8.508c-.334-2.185-2.552-3.02-4.2-3.02a4.243 4.243 0 0 0 -4.308 3.02z" transform="translate(-745.106 -257.452)"/><path d="m1025.276 293.723a6.116 6.116 0 0 1 -5.339-2.853v2.486h-4.937v-23.956a4.938 4.938 0 0 1 4.938 4.938v4.337a6.823 6.823 0 0 1 5.439-2.686c5.305 0 8.175 4 8.175 8.775.016 4.989-3.104 8.959-8.276 8.959zm-.884-13.713c-2.686 0-4.571 1.919-4.571 5.072a4.256 4.256 0 0 0 4.438 4.638c2.719 0 4.371-2.185 4.371-4.9 0-2.62-1.518-4.81-4.238-4.81z" transform="translate(-845.67 -224.459)"/><path d="m726.593 279-2.8 9.209-3.67-11.628a2.608 2.608 0 0 0 -4.971 0l-3.7 11.645-2.8-9.226a7.068 7.068 0 0 0 -6.756-5l.017.033c-.083 0-.183-.033-.267-.033h-2.446a4.147 4.147 0 0 0 2.819 3.92 2.713 2.713 0 0 1 1.668 1.768l4.855 15.432a2.938 2.938 0 0 0 1.969 1.985 2.782 2.782 0 0 0 3.37-1.852l3.77-12.095 3.72 11.978a2.938 2.938 0 0 0 1.969 1.985 2.782 2.782 0 0 0 3.37-1.852l6.673-21.254a7.058 7.058 0 0 0 -6.79 4.985z" fill="url(#a)" transform="translate(-582.554 -228.291)"/><path d="m657.42 270.4h-3.72v.684a2.342 2.342 0 0 0 2.335 2.336h3.72v-.684a2.342 2.342 0 0 0 -2.335-2.336z" fill="#0074a2" transform="translate(-544.645 -225.292)"/><path d="m615.12 270.4h-3.72v.684a2.342 2.342 0 0 0 2.336 2.336h3.72v-.684a2.342 2.342 0 0 0 -2.336-2.336z" fill="#f05b89" transform="translate(-509.402 -225.292)"/><path d="m572.82 270.4h-3.72v.684a2.342 2.342 0 0 0 2.336 2.336h3.72v-.684a2.343 2.343 0 0 0 -2.336-2.336z" fill="#f79548" transform="translate(-474.159 -225.292)"/><path d="m394.755 60.641c-5.355-1.835-7.791-3.987-10.727-6.506s-3.954-4.338-5.639-6.423c-1.7-2.085-3.6-6.056-6.54-8.992s-8.341-3.3-12.245-1.218a8.972 8.972 0 0 0 -4.4 6.373c5.222-.8 7.374 3.253 8.925 6.423s1.768 6.606 2.085 8.859c1.084 7.641 6.006 12.095 11.711 13.446 1.952.534 7.274 2 8.692 2.552 0 0-3.07-1.568-3.87-2.135h-.017c.534-.033 1.568-.133 2.1-.217a14.1 14.1 0 0 1 3.487 1.134s-2.052-1.485-2.085-1.485a16.656 16.656 0 0 0 6.84-3.754c.1-.1.2-.184.3-.284a19.276 19.276 0 0 1 4.421-3.053 28.947 28.947 0 0 1 10.744-2.936c-6.675-.299-11.747-1.083-13.782-1.784z" fill="url(#b)" transform="translate(-295.943 -30.147)"/><path d="m582.3 199.2a11.848 11.848 0 0 1 7.824-1.435c3.87.634 8.058 4.287 13.563 5.372.284.067.567.133.851.184 4.1.684 9.075-1.051 8.808-3.954-.746-8.159-21.787-9.243-31.046-.167z" fill="url(#c)" transform="translate(-485.157 -160.648)"/><path d="m390.718 59.163a.539.539 0 0 1 -.567.551.559.559 0 1 1 .033-1.118.556.556 0 0 1 .534.567z" fill="#fff" transform="translate(-324.604 -48.822)"/><path d="m482.308 49.384c-4.037.567-7.724 1.218-11.094 1.919-36.452 7.674-34.967 23.306-30.313 28.144 12.879 13.43 38.821-24.924 41.757-29.662.134-.201-.083-.434-.35-.401z" fill="url(#d)" transform="translate(-365.346 -41.145)"/><path d="m469.974.043c-3.77 1.652-7.157 3.27-10.227 4.855-33.215 17.183-27.526 31.931-21.02 34.917 18.2 8.341 30.279-34.2 31.714-39.488.067-.234-.217-.385-.467-.284z" fill="url(#e)" transform="translate(-361.386 -.011)"/><path d="m433.693 83.705c.133-6.339 6.406-14.964 31.38-16.866.367-.851.767-2 1.2-3.1a5.387 5.387 0 0 1 .217-.551c.334-.868.617-1.668.834-2.286-26.924 5.52-33.748 16.08-33.631 22.803z" fill="url(#f)" transform="translate(-361.34 -50.742)"/><path d="m487.863 94.918c-2.853-.1-6.289-.15-8.825-.133-7.224 9.042-20.086 25.024-30.346 25.424a9.432 9.432 0 0 1 -1.551-.117h-.067a9.832 9.832 0 0 1 -5.305-2.7c-1.335-1.268-1.952-2.436-1.151-1.285 10.844 15.315 43.625-16.8 47.512-20.737.184-.185.017-.436-.267-.452z" fill="url(#g)" transform="translate(-366.813 -78.971)"/><path d="m473.722 94.8c-1.118 0-2.236.017-3.3.05-29.078.734-36.585 10.093-36.719 16.666a8.467 8.467 0 0 0 2.436 5.889 9.767 9.767 0 0 0 5.238 2.7h.067a15.069 15.069 0 0 0 1.535.117c10.674.002 24.021-16.18 30.743-25.422z" fill="url(#h)" transform="translate(-361.347 -78.987)"/><path d="m465 96.6c-24.59 1.818-31.263 10.343-31.4 16.416a8.3 8.3 0 0 0 2.5 5.889 10.774 10.774 0 0 0 2.135 1.568 11.448 11.448 0 0 0 3.77 1.184c.367.033.734.05 1.1.067a13.061 13.061 0 0 0 2.519-.267c8.429-2.035 15.186-14.497 19.376-24.857z" fill="url(#i)" transform="translate(-361.264 -80.486)"/><g fill="#524947"><path d="m3.636 448.7a3.2 3.2 0 1 1 -3.236 3.2 3.218 3.218 0 0 1 3.236-3.2zm0 5.155a1.936 1.936 0 1 0 -1.868-1.935 1.871 1.871 0 0 0 1.868 1.935z" transform="translate(-.333 -373.846)"/><path d="m69 455.506v-6.206h2.719a1.925 1.925 0 0 1 2 2.035 1.9 1.9 0 0 1 -2 1.985h-1.351v2.185zm2.536-3.27a.812.812 0 0 0 .784-.918c0-.551-.3-.934-.784-.934h-1.168v1.852z" transform="translate(-57.489 -374.346)"/><path d="m128.371 449.3v1.151h-1.771v5.055h-1.351v-5.055h-1.749v-1.151z" transform="translate(-102.897 -374.346)"/><path d="m183.168 455.506h-1.368v-6.206h1.368z" transform="translate(-151.471 -374.346)"/><path d="m223.853 455.523-1.551-3.7-.334 3.787h-1.368l.584-6.206h1.385l1.735 4.171 1.735-4.171h1.385l.584 6.206h-1.368l-.334-3.787-1.551 3.7z" transform="translate(-183.798 -374.429)"/><path d="m296.868 455.506h-1.368v-6.206h1.368z" transform="translate(-246.202 -374.346)"/><path d="m334.318 453.038a1.1 1.1 0 0 0 1.134.851c.484 0 .934-.184.934-.634 0-.234-.133-.467-.717-.667l-.667-.234c-1.368-.467-1.585-1.335-1.585-1.852a1.855 1.855 0 0 1 2.085-1.8 2.119 2.119 0 0 1 2.069 1.351l-1.118.567a.977.977 0 0 0 -.951-.7c-.434 0-.751.167-.751.584 0 .167.05.45.667.667l.651.234c1.385.434 1.635 1.268 1.652 1.835a1.986 1.986 0 0 1 -2.219 1.885 2.237 2.237 0 0 1 -2.4-1.835z" transform="translate(-277.53 -373.846)"/><path d="m392.353 455.523-1.552-3.7-.334 3.787h-1.367l.584-6.206h1.385l1.735 4.171 1.735-4.171h1.385l.584 6.206h-1.368l-.334-3.787-1.551 3.7z" transform="translate(-324.187 -374.429)"/><path d="m494.6 455.506 2.4-6.206h1.335l2.436 6.206h-1.435l-.45-1.168v.017h-2.436v-.017l-.434 1.168zm2.219-2.269h1.668l-.818-2.486z" transform="translate(-412.087 -374.346)"/><path d="m557.271 449.3v1.151h-1.771v5.055h-1.351v-5.055h-1.749v-1.151z" transform="translate(-460.244 -374.346)"/><path d="m647.068 455.506h-1.368v-6.206h1.368z" transform="translate(-537.979 -374.346)"/><path d="m687.871 449.3v1.151h-1.771v5.055h-1.351v-5.055h-1.749v-1.151z" transform="translate(-569.057 -374.346)"/><path d="m739.618 453.038a1.1 1.1 0 0 0 1.135.851c.484 0 .934-.184.934-.634 0-.234-.133-.467-.717-.667l-.667-.234c-1.368-.467-1.585-1.335-1.585-1.852a1.856 1.856 0 0 1 2.085-1.8 2.119 2.119 0 0 1 2.069 1.351l-1.118.567a.977.977 0 0 0 -.951-.7c-.434 0-.751.167-.751.584 0 .167.05.45.667.667l.651.234c1.385.434 1.635 1.268 1.652 1.835a1.986 1.986 0 0 1 -2.219 1.885 2.237 2.237 0 0 1 -2.4-1.835z" transform="translate(-615.214 -373.846)"/><path d="m832.4 455.506v-6.206h4.121v1.084h-2.753v1.516h2.386v1.084h-2.386v2.5h-1.368z" transform="translate(-693.533 -374.346)"/><path d="m888.268 455.506h-1.368v-6.206h1.368z" transform="translate(-738.941 -374.346)"/><path d="m928.668 451.736v3.77h-1.368v-6.206h1.051l2.736 3.737v-3.737h1.368v6.206h-1.034z" transform="translate(-772.601 -374.346)"/><path d="m990.5 455.506v-6.206h4.121v1.084h-2.753v1.516h2.386v1.084h-2.386v1.416h2.753v1.084h-4.121z" transform="translate(-825.257 -374.346)"/><path d="m1043.818 453.038a1.1 1.1 0 0 0 1.134.851c.484 0 .934-.184.934-.634 0-.234-.133-.467-.717-.667l-.667-.234c-1.368-.467-1.585-1.335-1.585-1.852a1.856 1.856 0 0 1 2.085-1.8 2.119 2.119 0 0 1 2.069 1.351l-1.118.567a.977.977 0 0 0 -.951-.7c-.434 0-.751.167-.751.584 0 .167.05.45.667.667l.651.234c1.385.434 1.635 1.268 1.651 1.835a1.986 1.986 0 0 1 -2.219 1.885 2.237 2.237 0 0 1 -2.4-1.835z" transform="translate(-868.666 -373.846)"/><path d="m1101.971 449.3v1.151h-1.771v5.055h-1.351v-5.055h-1.749v-1.151z" transform="translate(-914.074 -374.346)"/></g></svg>